<svg id="etWqZUc2aHR1" xmlns="http://www.w3.org/2000/svg" xmlns:xlink="http://www.w3.org/1999/xlink" viewBox="0 0 300 300" shape-rendering="geometricPrecision" text-rendering="geometricPrecision" project-id="08bf5ac79afc4628b40e6c352119b178" export-id="b596ba512d5d4f61a004003edc5e9862" cached="false"><g transform="matrix(.347686 0 0 0.339884 80.481069 49.970033)"><g><rect width="109.4" height="8.7" rx="0" ry="0" transform="translate(137.4 294.7)" clip-rule="evenodd" fill="#90b9b1" fill-rule="evenodd"/></g><g><g><path d="" clip-rule="evenodd" fill="#417358" fill-rule="evenodd"/></g></g></g><g transform="matrix(.856073 0 0 0.812532-27.952001-11.768685)"><g><path d="M205.5,296.2c1.1-18.8,2.8-54.9-1.7-96.6-4.5-41.6-15.3-88.6-39.2-129.2l2-1.2c24.1,40.9,35,88.3,39.5,130.1s2.8,78.1,1.7,96.9h-2.3v0Z" fill="#5a8e60"/><g><path d="M168.4,74.5c-13.1-5.7-21.8-17.1-26-34.1c14.7,5.2,25,18.6,26,34.1Z" clip-rule="evenodd" fill="#5a8e60" fill-rule="evenodd"/><path d="M177.2,91.3c-2.3-12.2,1.5-24,11.5-35.3c3.7,13-.9,26.9-11.5,35.3Z" clip-rule="evenodd" fill="#5a8e60" fill-rule="evenodd"/><path d="M177.2,91.3c-12.1,2.6-24-1.1-35.5-10.9c13-3.9,27,.4,35.5,10.9Z" clip-rule="evenodd" fill="#5a8e60" fill-rule="evenodd"/><path d="M185.4,110.6c-.3-12.4,5.4-23.4,17.1-33c1.5,13.5-5.3,26.5-17.1,33Z" clip-rule="evenodd" fill="#5a8e60" fill-rule="evenodd"/><path d="M185.8,110.7c-11.8,3.8-24,1.4-36.5-7.1c12.5-5.3,26.9-2.4,36.5,7.1Z" clip-rule="evenodd" fill="#5a8e60" fill-rule="evenodd"/><path d="M191.1,128.3c1.6-12.3,8.9-22.3,21.9-30-.6,13.5-9.2,25.3-21.9,30Z" clip-rule="evenodd" fill="#5a8e60" fill-rule="evenodd"/><path d="M191.1,128.3c-12,3.2-24,.1-36-9.1c12.7-4.4,26.9-.9,36,9.1Z" clip-rule="evenodd" fill="#5a8e60" fill-rule="evenodd"/><path d="M197,151.7c2-12.2,9.7-22,23-29.2-1.1,13.5-10.1,25-23,29.2Z" clip-rule="evenodd" fill="#5a8e60" fill-rule="evenodd"/><path d="M197,151.7c-12.3,1.7-23.8-2.7-34.7-13.3c13.2-2.9,26.9,2.3,34.7,13.3Z" clip-rule="evenodd" fill="#5a8e60" fill-rule="evenodd"/><path d="M201.8,176c1.2-12.4,8.1-22.6,21-30.7-.3,13.5-8.5,25.6-21,30.7Z" clip-rule="evenodd" fill="#5a8e60" fill-rule="evenodd"/><path d="M201.8,176c-12.4.5-23.5-5.1-33.2-16.7c13.4-1.6,26.5,5,33.2,16.7Z" clip-rule="evenodd" fill="#5a8e60" fill-rule="evenodd"/></g><path d="M197.5,301.1c-10.5-18.6-24-35.4-40.5-50.2s-36.1-27.7-58.6-38.6l1-2.1c22.7,11,42.5,24,59.2,39s30.4,31.9,41,50.8l-2.1,1.1v0Z" fill="#417358"/><g><path d="M104.5,214.1c-16.1,2.6-31.5-3-46-16.7c17.3-4.2,35.4,2.4,46,16.7Z" clip-rule="evenodd" fill="#417358" fill-rule="evenodd"/><path d="M123.3,224.7c-9.7-10.3-13.3-24-10.6-41c11.4,10.3,15.6,26.5,10.6,41Z" clip-rule="evenodd" fill="#417358" fill-rule="evenodd"/><path d="M123.3,224.7c-10.1,9.9-23.7,13.7-40.8,11.3c10-11.6,26.1-16,40.8-11.3v0Z" clip-rule="evenodd" fill="#417358" fill-rule="evenodd"/><path d="M143,238.3c-7.9-11.7-9.2-25.8-3.8-42.2c9.6,12,11.1,28.7,3.8,42.2Z" clip-rule="evenodd" fill="#417358" fill-rule="evenodd"/><path d="M143.4,238.1c-9,10.9-22.2,16.1-39.4,15.6c8.8-12.7,24.3-18.8,39.4-15.6Z" clip-rule="evenodd" fill="#417358" fill-rule="evenodd"/><path d="M159.4,251.8c-6.1-12.8-5.2-26.9,2.6-42.3c7.7,13.4,6.7,30-2.6,42.3v0Z" clip-rule="evenodd" fill="#417358" fill-rule="evenodd"/><path d="M159.4,251.8c-9.6,10.4-23,14.9-40.2,13.4c9.5-12.1,25.3-17.4,40.2-13.4Z" clip-rule="evenodd" fill="#417358" fill-rule="evenodd"/></g><path d="M207.4,300.5c2.4-21.4,7.3-62.6,20.3-108.8s34.2-97.4,69.2-138.9l1.8,1.5C264,95.5,243,146.4,230,192.3c-13,46-17.9,87-20.3,108.4l-2.3-.2Z" fill="#417358"/><g><path d="M293.7,58.4c15.9-4,27.8-15.1,35.8-33.4-17.5,2.9-31.6,16.1-35.8,33.4Z" clip-rule="evenodd" fill="#417358" fill-rule="evenodd"/><path d="M280.6,75.5c4.9-13.3,2.9-27.2-6.3-41.9-6.5,14-4,30.5,6.3,41.9Z" clip-rule="evenodd" fill="#417358" fill-rule="evenodd"/><path d="M280.6,75.5c13.2,5.2,27.2,3.3,42-5.5-13.8-6.8-30.4-4.6-42,5.5Z" clip-rule="evenodd" fill="#417358" fill-rule="evenodd"/><path d="M267.8,95.8c2.7-13.9-1.6-27.3-13-40.3-4.2,14.7.9,30.6,13,40.3Z" clip-rule="evenodd" fill="#417358" fill-rule="evenodd"/><path d="M267.3,95.7c12.6,6.5,26.7,6.2,42.4-1.1-13.1-8.1-29.8-7.7-42.4,1.1Z" clip-rule="evenodd" fill="#417358" fill-rule="evenodd"/><path d="M257.9,114.6c.6-14.1-5.7-26.8-18.9-37.9-1.9,15.3,5.6,30.2,18.9,37.9Z" clip-rule="evenodd" fill="#417358" fill-rule="evenodd"/><path d="M257.9,114.6c12.9,5.8,27,4.7,42.3-3.4-13.5-7.4-30.1-6.1-42.3,3.4v0Z" clip-rule="evenodd" fill="#417358" fill-rule="evenodd"/><path d="M246.8,139.8c.1-14.2-6.7-26.6-20.3-37.2-1.3,15.4,6.7,30.1,20.3,37.2Z" clip-rule="evenodd" fill="#417358" fill-rule="evenodd"/><path d="M246.8,139.8c13.5,4.3,27.3,1.5,41.6-8.3-14.3-5.8-30.7-2.6-41.6,8.3Z" clip-rule="evenodd" fill="#417358" fill-rule="evenodd"/><path d="M236.9,166.2c1-14.1-4.9-27-17.7-38.5-2.4,15.2,4.6,30.4,17.7,38.5Z" clip-rule="evenodd" fill="#417358" fill-rule="evenodd"/><path d="M236.9,166.2c13.8,2.9,27.4-1.2,40.5-12.4-14.8-4.4-30.7.5-40.5,12.4v0Z" clip-rule="evenodd" fill="#417358" fill-rule="evenodd"/></g><path d="M225.5,300.1c4.2-20.1,11.6-39.3,22.4-57.5c10.8-18.3,24.8-35.6,42.2-52.1l1.6,1.7c-17.2,16.3-31.1,33.5-41.8,51.6-10.6,18.1-18,37-22.1,56.8l-2.3-.5v0Z" fill="#78a668"/><g><path d="M286.6,195.4c15.3-2.3,27.5-11.8,36.7-28.3-16.8,1.2-31.2,12.4-36.7,28.3Z" clip-rule="evenodd" fill="#78a668" fill-rule="evenodd"/><path d="M272.7,210.4c5.8-12.1,5.1-25.4-2.2-40.1-7.3,12.6-6.5,28.4,2.2,40.1Z" clip-rule="evenodd" fill="#78a668" fill-rule="evenodd"/><path d="M272.7,210.4c12,6,25.3,5.5,40.1-1.5-12.4-7.6-28.2-7-40.1,1.5Z" clip-rule="evenodd" fill="#78a668" fill-rule="evenodd"/><path d="M258.9,228.3c3.8-12.9.9-25.9-8.7-39.2-5.3,13.7-1.9,29.1,8.7,39.2v0Z" clip-rule="evenodd" fill="#78a668" fill-rule="evenodd"/><path d="M258.4,228.3c11.3,7.3,24.6,8.2,40,2.7-11.5-8.9-27.3-10-40-2.7Z" clip-rule="evenodd" fill="#78a668" fill-rule="evenodd"/><path d="M247.9,245.2c1.8-13.3-3-25.7-14.5-37.4-3.1,14.3,2.6,29,14.5,37.4Z" clip-rule="evenodd" fill="#78a668" fill-rule="evenodd"/><path d="M247.9,245.2c11.6,6.6,25,6.8,40.1.5-12-8.2-27.8-8.4-40.1-.5v0Z" clip-rule="evenodd" fill="#78a668" fill-rule="evenodd"/><path d="M239.4,261.4c1-13.4-4.5-25.5-16.7-36.5-2.3,14.4,4.3,28.8,16.7,36.5Z" clip-rule="evenodd" fill="#78a668" fill-rule="evenodd"/><path d="M239.4,261.4c12,5.9,25.4,5.3,40.1-1.8-12.6-7.5-28.3-6.8-40.1,1.8Z" clip-rule="evenodd" fill="#78a668" fill-rule="evenodd"/></g><path d="M200.5,300.5c-.2-25.2-4.6-50.2-13.2-74.9s-21.4-49.1-38.5-73.3l1.9-1.3c17.2,24.3,30.1,48.9,38.8,73.8s13.2,50.1,13.4,75.6l-2.4.1v0Z" fill="#78a668"/><g><path d="M153.9,157.7c-18.1-6.6-30.7-21.1-37.9-43.5c20.2,5.6,35.2,22.7,37.9,43.5Z" clip-rule="evenodd" fill="#78a668" fill-rule="evenodd"/><path d="M167.2,179.4c-4.2-16.1-.1-32.3,12.4-48.4c6,17.2,1.1,36.3-12.4,48.4v0Z" clip-rule="evenodd" fill="#78a668" fill-rule="evenodd"/><path d="M167.2,179.4c-16.1,4.5-32.3.6-48.6-11.6c17.1-6.2,36.2-1.7,48.6,11.6Z" clip-rule="evenodd" fill="#78a668" fill-rule="evenodd"/><path d="M179.8,204.7c-1.5-16.6,5.2-31.9,20.2-45.7c3.1,17.9-4.9,35.9-20.2,45.7Z" clip-rule="evenodd" fill="#78a668" fill-rule="evenodd"/><path d="M180.4,204.7c-15.5,6.1-32,4-49.5-6.4c16.2-8,35.8-5.5,49.5,6.4Z" clip-rule="evenodd" fill="#78a668" fill-rule="evenodd"/><path d="M189.1,228c1-16.6,9.9-30.7,26.8-42.2.3,18.2-10.2,34.8-26.8,42.2v0Z" clip-rule="evenodd" fill="#78a668" fill-rule="evenodd"/><path d="M189.1,228c-15.8,5.3-32.2,2.3-49.1-9.1c16.6-7.1,36-3.5,49.1,9.1v0Z" clip-rule="evenodd" fill="#78a668" fill-rule="evenodd"/><path d="M195.6,249.8c2-16.6,11.7-30.1,29.2-40.5-.7,18.2-12.2,34.1-29.2,40.5Z" clip-rule="evenodd" fill="#78a668" fill-rule="evenodd"/><path d="M195.6,249.8c-16.1,4.3-32.3.3-48.5-12c17.1-6.1,36.2-1.3,48.5,12Z" clip-rule="evenodd" fill="#78a668" fill-rule="evenodd"/></g></g><g><path d="M156.5,307.8h102.5v37.5c0,16.3-11.1,29.7-24.7,29.7h-53c-13.6,0-24.7-13.4-24.7-29.7v-37.5Z" clip-rule="evenodd" fill="#e8a0a3" fill-rule="evenodd"/><polygon points="259,315.1 259,318.5 156.5,318.5 156.5,315.1" clip-rule="evenodd" fill="#fff" fill-rule="evenodd"/><path d="M259,333.3v8.5l-.7.8c0,0-.1.1-.1.1-1.2,1.1-3,1-4.1-.1l-10-10.9c-3.3,3.6-6.8,7.2-10,10.9c0,0-.1.1-.1.1-1.2,1.1-3,1-4.1-.1l-10-10.9c-3.3,3.6-6.8,7.2-10,10.9c0,0-.1.1-.1.1-1.2,1.1-3,1-4.1-.1l-10-10.9c-3.3,3.6-6.8,7.2-10,10.9c0,0-.1.1-.1.1-1.2,1.1-3,1-4.1-.1l-10-10.9c-3.3,3.6-6.8,7.2-10,10.9c0,0-.1.1-.1.1-1.2,1.1-3,1-4.1-.1l-.7-.8v-8.5l2.8,3l10-10.9c1.1-1.2,2.9-1.2,4-.1.1,0,.1.1.1.1c3.3,3.7,6.7,7.3,10,10.9l10-10.9c1.1-1.2,2.9-1.2,4-.1.1,0,.1.1.1.1c3.3,3.7,6.7,7.3,10,10.9l10-10.9c1.1-1.2,2.9-1.2,4-.1.1,0,.1.1.2.1c3.3,3.7,6.7,7.3,10,10.9l10-10.9c1.1-1.2,2.9-1.2,4-.1.1,0,.1.1.2.1c3.3,3.7,6.7,7.3,10,10.9l3-3v0Z" clip-rule="evenodd" fill="#fff" fill-rule="evenodd"/><rect width="107.9" height="12.2" rx="0" ry="0" transform="translate(153.8 295.6)" clip-rule="evenodd" fill="#d66167" fill-rule="evenodd"/></g></g></svg>
